<?xml version="1.0" encoding="UTF-8" standalone="no"?><!DOCTYPE svg PUBLIC "-//W3C//DTD SVG 1.1//EN" "http://www.w3.org/Graphics/SVG/1.1/DTD/svg11.dtd"><svg width="100%" height="100%" viewBox="0 0 1222 1005" version="1.1" xmlns="http://www.w3.org/2000/svg" xmlns:xlink="http://www.w3.org/1999/xlink" xml:space="preserve" style="fill-rule:evenodd;clip-rule:evenodd;stroke-linejoin:round;stroke-miterlimit:1.41421;"><g id="Vertical.-fondo.-blanco_FNA"><path d="M881.384,741.456l-535.085,0c-8.14,0 -80.706,-2.19 -121,-78.028c-23.628,-44.237 -25.578,-96.665 -5.062,-136.784l0.35,-0.691l0.394,-0.666l202.937,-347.228l64.222,-112.622l0.387,-0.671l0.413,-0.644c11.012,-17.022 26.866,-31.794 45.856,-42.747c18.578,-11.184 39.525,-18.122 60.597,-20.078c5.172,-0.641 9.959,-1.035 14.606,-1.184c1.978,-0.079 3.975,-0.113 5.953,-0.113c70.329,0 107.2,44.087 117.663,59.044c0.731,0.934 1.103,1.453 1.103,1.453l0.756,1.056l0.819,1.366c0,0 228.959,396.569 264.078,457.406l2.903,4.962l0.816,1.388l0.2,0.45c0.462,0.866 0.875,1.759 1.244,2.675c8.297,17.459 12.64,37.591 12.581,58.319c0.337,21.509 -4.106,42.931 -12.866,62.022c-2.047,4.84 -4.118,9.218 -6.328,13.35c-34.725,65.368 -93.715,75.909 -112.772,77.575c-1.337,0.19 -2.065,0.25 -2.065,0.25l-1.188,0.103l-1.512,0.037Z" style="fill:#fff;"/><path d="M851.046,661.409l-76.85,-0.085l73.803,-74.446l76.038,0.056l-72.991,74.475Zm-83.722,-88.013l75.288,-76.056l36.822,1.581l0.753,36.163l-75.366,74.434l-1.515,-36.122l-35.982,0Zm-51.837,31.306l0.075,-76.918l74.597,-72.894l-0.1,75.337l-74.572,74.475Zm-9.906,-366.59l-53.535,54.862l0,-103.553l53.597,-56.444l-0.062,105.135Zm-0.044,130.309l-53.491,54.925l0,-104.465l53.597,-54.897l-0.106,104.437Zm-0.097,124.847l-53.394,54.878l0,-104.472l53.597,-54.831l-0.203,104.425Zm-66.494,-258.487l-27.8,-25.813l-27.862,25.135l0,-105.957l27.722,-24.409l27.94,25.122l0,105.922Zm0,127.237l-27.619,-24.325l-28.043,24.363l0,-105.979l27.862,-25.975l27.8,25.135l0,106.781Zm0,126.375l-28.309,-25.106l-27.353,25.131l0,-105.978l27.259,-24.353l28.403,25.087l0,105.219Zm-69.775,-195.419l-53.534,-54.862l-0.063,-105.135l53.597,56.444l0,103.553Zm0,130.372l-53.49,-54.925l-0.107,-104.437l53.597,54.897l0,104.465Zm0,124.8l-53.394,-54.878l-0.203,-104.425l53.597,54.831l0,104.472Zm-134.522,-17.918l-0.097,-75.338l74.597,72.894l0.072,76.919l-74.572,-74.475Zm-13.243,43.168l-1.519,36.122l-75.366,-74.434l0.753,-36.163l36.825,-1.581l75.285,76.056l-35.978,0Zm29.106,87.928l-76.85,0.085l-72.991,-74.475l76.038,-0.056l73.803,74.446Zm529.65,-120.9c-0.041,-0.121 -0.05,-0.262 -0.116,-0.378c-0.09,-0.159 -0.222,-0.384 -0.325,-0.562c-0.056,-0.116 -0.1,-0.231 -0.159,-0.341l-2.785,-4.753l-35.446,37.65l-76.866,-0.066l73.759,-73.731l17.7,0.025c-4.168,-7.228 -8.772,-15.19 -13.731,-23.781l-47.097,47.291l-1.515,-36.95l-36.81,-0.757l57.019,-58.781c-2.294,-3.975 -4.625,-8.012 -6.991,-12.109l-9.965,9.659l0.578,-25.919c-5.55,-9.606 -11.225,-19.44 -16.997,-29.437l-0.15,74.131l-74.55,72.944l0.103,-76.96l73.597,-71.846c-76.031,-131.694 -166.913,-289.104 -166.913,-289.104c0,0 -0.331,-0.456 -0.971,-1.243c-1.491,-2.185 -3.46,-4.825 -5.9,-7.725l-0.06,41.7l-53.525,55.643l0,-105.143l19.531,-19.372c-9.243,-4.8 -20.078,-8.769 -32.631,-11.025l0,77.378l-27.981,-24.278l-27.681,24.347l0,-75.888c-10.807,2.488 -21.338,6.566 -31.119,12.047l17.006,16.791l0,105.143l-53.525,-55.643l-0.065,-35.503c-1.254,1.678 -2.454,3.4 -3.594,5.165l-64.375,112.878l-101.856,174.282l73.134,71.396l0.103,76.96l-74.547,-72.944l-0.15,-72.916l-16.981,29.05l0.559,25.091l-9.715,-9.416l-7.053,12.063l56.831,58.584l-36.81,0.757l-1.512,36.95l-47.128,-47.322l-13.919,23.812l17.919,-0.025l73.756,73.731l-76.862,0.066l-35.741,-37.962l-2.963,5.065c-17.25,33.722 -13.459,77.1 4.866,111.4c31.206,58.735 85,63.453 96.747,63.453l188.997,0c0.687,-3.581 0.569,-6.687 -1.663,-10.4l-39.237,-40.05l-22.738,0.122l-36.134,-37.64l0,-36.935l37.587,-0.028l36.907,35.284l1.562,23.554l36.91,36.078c6.321,6.993 9.431,12.487 12.606,21.934c0.522,1.672 0.759,4.981 0.831,8.081l37.172,0l0,-136.078l-15.806,-15.678l0,-51.778l27.472,-25.213l28.19,25.213l0,51.778l-14.84,14.794l0.203,136.962l38.437,0c0.047,-3.106 0.335,-6.34 0.875,-8.081c3.175,-9.447 6.285,-14.941 12.61,-21.934l36.906,-36.078l1.562,-23.554l36.91,-35.284l37.584,0.028l0,36.935l-36.131,37.64l-22.741,-0.122l-39.237,40.05c-1.897,3.157 -2.26,7 -1.91,10.4l192.2,0c0,0 0.563,-0.059 1.566,-0.218c17.744,-1.357 63.8,-10.622 91.756,-63.235c1.981,-3.703 3.76,-7.537 5.391,-11.437c7.256,-15.638 10.884,-33.294 10.556,-50.897c0.072,-16.681 -3.253,-33.113 -10.481,-47.785" style="fill:#00a650;"/><path d="M132.849,901.774l0,-132.384l81.138,0l0,29.062l-45.935,0l0,22.907l43.316,0l0,28.45l-43.316,0l0,51.965l-35.203,0Z" style="fill:#231f20;fill-rule:nonzero;"/><path d="M223.245,901.774l0,-132.384l81.141,0l0,29.062l-45.932,0l0,22.907l43.31,0l0,28.45l-43.31,0l0,22.312l45.932,0l0,29.653l-81.141,0Z" style="fill:#231f20;fill-rule:nonzero;"/><path d="M350.021,872.12l6.053,0c14.144,0 24.466,-2.909 30.982,-8.728c6.497,-5.815 9.74,-15.065 9.74,-27.725c0,-12.669 -3.243,-21.95 -9.74,-27.875c-6.516,-5.906 -16.838,-8.859 -30.982,-8.859l-6.053,0l0,73.187Zm-35.687,29.653l0,-132.384l27.55,0c20.556,0 35.103,0.969 43.628,2.9c8.528,1.922 16.025,5.15 22.475,9.675c8.378,5.85 14.737,13.338 19.072,22.466c4.35,9.14 6.515,19.553 6.515,31.25c0,11.693 -2.165,22.103 -6.515,31.237c-4.335,9.135 -10.694,16.622 -19.072,22.469c-6.391,4.456 -13.688,7.647 -21.881,9.544c-8.207,1.897 -20.922,2.843 -38.163,2.843l-6.059,0l-27.55,0Z" style="fill:#231f20;fill-rule:nonzero;"/><path d="M437.893,901.774l0,-132.384l81.132,0l0,29.062l-45.932,0l0,22.907l43.31,0l0,28.45l-43.31,0l0,22.312l45.932,0l0,29.653l-81.132,0Z" style="fill:#231f20;fill-rule:nonzero;"/><path d="M670.276,831.972l6.696,0c7.738,0 13.416,-1.329 17,-3.988c3.585,-2.647 5.36,-6.822 5.36,-12.487c0,-6.632 -1.656,-11.366 -5.003,-14.169c-3.35,-2.803 -8.95,-4.2 -16.819,-4.2l-7.234,0l0,34.844Zm-33.888,69.803l0,-132.385l37.778,0c14.766,0 25.05,0.682 30.869,2.035c5.812,1.362 10.828,3.631 15.05,6.828c4.75,3.622 8.431,8.228 10.991,13.819c2.559,5.612 3.828,11.79 3.828,18.546c0,10.238 -2.503,18.572 -7.535,24.985c-5.037,6.419 -12.359,10.684 -22.009,12.797l36.047,53.375l-40.75,0l-30.381,-51.844l0,51.844l-33.888,0Z" style="fill:#231f20;fill-rule:nonzero;"/><path d="M775.125,831.972l6.684,0c7.763,0 13.438,-1.329 16.997,-3.988c3.587,-2.647 5.381,-6.822 5.381,-12.487c0,-6.632 -1.675,-11.366 -5.025,-14.169c-3.322,-2.803 -8.937,-4.2 -16.819,-4.2l-7.218,0l0,34.844Zm-33.885,69.803l0,-132.385l37.76,0c14.768,0 25.062,0.682 30.862,2.035c5.819,1.362 10.85,3.631 15.072,6.828c4.769,3.622 8.413,8.228 10.969,13.819c2.572,5.612 3.847,11.79 3.847,18.546c0,10.238 -2.513,18.572 -7.547,24.985c-5.035,6.419 -12.363,10.684 -21.991,12.797l36.06,53.375l-40.779,0l-30.368,-51.844l0,51.844l-33.885,0Z" style="fill:#231f20;fill-rule:nonzero;"/><path d="M911.38,874.647c10.009,0 18.303,-3.675 24.837,-11.015c6.544,-7.335 9.831,-16.61 9.831,-27.804c0,-11.081 -3.315,-20.318 -9.959,-27.721c-6.653,-7.394 -14.878,-11.104 -24.709,-11.104c-10.022,0 -18.288,3.697 -24.847,11.057c-6.556,7.375 -9.81,16.631 -9.81,27.768c0,11.316 3.216,20.619 9.675,27.894c6.447,7.281 14.775,10.925 24.982,10.925m70.718,-38.819c0,9.525 -1.746,18.45 -5.25,26.76c-3.487,8.325 -8.581,15.769 -15.278,22.337c-6.765,6.513 -14.481,11.525 -23.168,15.063c-8.691,3.519 -17.71,5.287 -27.05,5.287c-9.457,0 -18.519,-1.768 -27.169,-5.287c-8.656,-3.538 -16.26,-8.55 -22.835,-15.063c-6.812,-6.568 -11.99,-14.043 -15.528,-22.425c-3.515,-8.378 -5.272,-17.272 -5.272,-26.672c0,-9.468 1.757,-18.368 5.272,-26.725c3.538,-8.346 8.716,-15.809 15.528,-22.378c6.575,-6.512 14.179,-11.522 22.835,-15.056c8.65,-3.525 17.712,-5.291 27.169,-5.291c9.412,0 18.475,1.766 27.19,5.291c8.71,3.534 16.388,8.544 23.028,15.056c6.622,6.51 11.697,13.957 15.222,22.341c3.522,8.366 5.306,17.294 5.306,26.762" style="fill:#231f20;fill-rule:nonzero;"/><path d="M1087.32,901.774l-117.059,0l66.85,-103.687l-53.65,0l0,-28.697l111.469,0l-66.678,103.569l59.068,0l0,28.815Z" style="fill:#231f20;fill-rule:nonzero;"/><path d="M591.232,827.513l1.012,-1.35l-0.059,32.919l-23.175,0l22.222,-31.569Zm4.112,-58.222l-0.056,-0.053l-4.016,0l-0.028,0.053l-0.325,0.45l-9.353,13.284l-83.612,118.75l41,0l10.547,-14.512l42.593,0l-0.072,14.512l33.791,0l0,-132.484l-30.469,0Z" style="fill:#231f20;fill-rule:nonzero;"/><path d="M0,1003.28l0,-46.119l29.516,0l0,7.631l-19.635,0l0,10.878l18.291,0l0,7.504l-18.291,0l0,20.106l-9.881,0Z" style="fill:#231f20;fill-rule:nonzero;"/><path d="M33.668,1003.28l0,-46.119l30.581,0l0,7.631l-20.575,0l0,10.878l19.294,0l0,7.504l-19.294,0l0,12.415l21.291,0l0,7.691l-31.297,0Z" style="fill:#231f20;fill-rule:nonzero;"/><path d="M80.248,995.652l4.972,0c4.753,0 8.241,-1.231 10.457,-3.69c2.221,-2.459 3.331,-6.325 3.331,-11.6c0,-5.397 -1.11,-9.353 -3.331,-11.863c-2.216,-2.512 -5.704,-3.772 -10.457,-3.772l-4.972,0l0,30.925Zm-9.818,7.629l0,-46.116l14.415,0c3.857,0 6.95,0.3 9.285,0.906c2.334,0.603 4.493,1.582 6.475,2.938c2.834,1.981 4.981,4.603 6.44,7.865c1.46,3.263 2.188,7.069 2.188,11.428c0,7.544 -2.06,13.26 -6.175,17.147c-4.116,3.888 -10.188,5.832 -18.213,5.832l-14.415,0Z" style="fill:#231f20;fill-rule:nonzero;"/><path d="M115.074,1003.28l0,-46.119l30.581,0l0,7.631l-20.575,0l0,10.878l19.294,0l0,7.504l-19.294,0l0,12.415l21.291,0l0,7.691l-31.297,0Z" style="fill:#231f20;fill-rule:nonzero;"/><path d="M161.528,977.205l5.815,0c3.647,0 6.15,-0.466 7.504,-1.407c1.356,-0.937 2.034,-2.571 2.034,-4.906c0,-2.481 -0.644,-4.2 -1.925,-5.162c-1.281,-0.96 -3.819,-1.438 -7.613,-1.438l-5.815,0l0,12.913Zm-9.694,26.078l0,-46.119l19.169,0c5.356,0 9.297,0.938 11.819,2.813c2.521,1.878 3.781,4.806 3.781,8.787c0,3.275 -0.71,5.803 -2.125,7.597c-1.419,1.794 -3.688,3.066 -6.816,3.816c2.522,0.271 4.363,1.037 5.519,2.3c1.156,1.259 1.922,3.387 2.297,6.39l0.812,6.66c0.25,1.856 0.563,3.409 0.941,4.662c0.375,1.25 0.853,2.281 1.437,3.094l-10.693,0c-0.335,-0.647 -0.6,-1.388 -0.797,-2.219c-0.2,-0.837 -0.36,-1.972 -0.485,-3.409l-0.656,-6.975c-0.253,-2.813 -0.694,-4.513 -1.331,-5.094c-0.634,-0.584 -2.194,-0.878 -4.672,-0.878l-8.506,0l0,18.575l-9.694,0Z" style="fill:#231f20;fill-rule:nonzero;"/><path d="M203.607,985.804l13.319,0l-6.347,-19.543l-6.972,19.543Zm-15.381,17.479l16.728,-46.119l11.628,0l16.072,46.119l-10.038,0l-3.281,-9.913l-18.228,0l-3.597,9.913l-9.284,0Z" style="fill:#231f20;fill-rule:nonzero;"/><path d="M272.668,989.463c-0.331,4.75 -2.103,8.375 -5.316,10.866c-3.209,2.488 -7.709,3.734 -13.506,3.734c-6.878,0 -12.09,-2.003 -15.631,-6.003c-3.547,-4 -5.319,-9.881 -5.319,-17.634c0,-7.731 1.825,-13.669 5.472,-17.806c3.647,-4.138 8.869,-6.207 15.666,-6.207c5.547,0 9.937,1.244 13.178,3.735c3.244,2.494 4.978,5.94 5.206,10.337l-9.097,0c-0.106,-2.209 -0.959,-3.978 -2.565,-5.303c-1.607,-1.322 -3.722,-1.984 -6.347,-1.984c-3.835,0 -6.728,1.434 -8.675,4.3c-1.95,2.865 -2.925,7.112 -2.925,12.74c0,5.794 0.959,10.094 2.878,12.897c1.919,2.803 4.847,4.203 8.784,4.203c2.544,0 4.622,-0.715 6.238,-2.156c1.615,-1.437 2.506,-3.344 2.675,-5.719l9.284,0Z" style="fill:#231f20;fill-rule:nonzero;"/><rect x="277.635" y="957.164" width="9.819" height="46.119" style="fill:#231f20;fill-rule:nonzero;"/><path d="M324.402,941.624l-9.788,11.538l-4.437,0l6.156,-11.538l8.069,0Zm-20.888,38.428c0,5.606 0.991,9.863 2.972,12.772c1.978,2.906 4.878,4.359 8.691,4.359c3.834,0 6.743,-1.453 8.725,-4.359c1.981,-2.909 2.968,-7.166 2.968,-12.772c0,-5.506 -1,-9.7 -3,-12.584c-2.003,-2.888 -4.9,-4.331 -8.693,-4.331c-3.772,0 -6.66,1.45 -8.66,4.343c-2,2.897 -3.003,7.088 -3.003,12.572m-10.316,-0.065c0,-7.272 1.972,-13.01 5.925,-17.21c3.95,-4.2 9.322,-6.3 16.116,-6.3c6.775,0 12.128,2.1 16.056,6.3c3.928,4.2 5.894,9.938 5.894,17.21c0,7.528 -1.937,13.418 -5.816,17.684c-3.878,4.262 -9.253,6.391 -16.134,6.391c-6.9,0 -12.297,-2.125 -16.194,-6.379c-3.9,-4.25 -5.847,-10.15 -5.847,-17.696" style="fill:#231f20;fill-rule:nonzero;"/><path d="M342.999,1003.28l0,-46.119l14.225,0l17.353,37.081l0,-37.081l8.85,0l0,46.119l-13.666,0l-17.912,-38.178l0,38.178l-8.85,0Z" style="fill:#231f20;fill-rule:nonzero;"/><path d="M406.77,1003.28l0,-46.119l14.225,0l17.353,37.081l0,-37.081l8.85,0l0,46.119l-13.666,0l-17.912,-38.178l0,38.178l-8.85,0Z" style="fill:#231f20;fill-rule:nonzero;"/><path d="M465.574,985.804l13.319,0l-6.347,-19.543l-6.972,19.543Zm-15.381,17.479l16.728,-46.119l11.628,0l16.072,46.119l-10.037,0l-3.282,-9.913l-18.228,0l-3.597,9.913l-9.284,0Z" style="fill:#231f20;fill-rule:nonzero;"/><path d="M534.637,989.463c-0.331,4.75 -2.103,8.375 -5.315,10.866c-3.21,2.488 -7.71,3.734 -13.507,3.734c-6.878,0 -12.09,-2.003 -15.631,-6.003c-3.547,-4 -5.319,-9.881 -5.319,-17.634c0,-7.731 1.825,-13.669 5.472,-17.806c3.647,-4.138 8.869,-6.207 15.666,-6.207c5.547,0 9.937,1.244 13.178,3.735c3.241,2.494 4.978,5.94 5.206,10.337l-9.097,0c-0.106,-2.209 -0.959,-3.978 -2.565,-5.303c-1.607,-1.322 -3.719,-1.984 -6.347,-1.984c-3.835,0 -6.728,1.434 -8.675,4.3c-1.95,2.865 -2.925,7.112 -2.925,12.74c0,5.794 0.959,10.094 2.878,12.897c1.916,2.803 4.844,4.203 8.784,4.203c2.544,0 4.622,-0.715 6.238,-2.156c1.615,-1.437 2.506,-3.344 2.675,-5.719l9.284,0Z" style="fill:#231f20;fill-rule:nonzero;"/><rect x="539.603" y="957.164" width="9.819" height="46.119" style="fill:#231f20;fill-rule:nonzero;"/><path d="M565.484,980.052c0,5.606 0.991,9.862 2.972,12.772c1.978,2.909 4.875,4.359 8.691,4.359c3.834,0 6.744,-1.45 8.722,-4.359c1.981,-2.91 2.972,-7.166 2.972,-12.772c0,-5.506 -1,-9.7 -3,-12.585c-2.004,-2.887 -4.9,-4.331 -8.694,-4.331c-3.775,0 -6.66,1.45 -8.663,4.344c-2,2.897 -3,7.087 -3,12.572m-10.318,-0.066c0,-7.272 1.975,-13.009 5.925,-17.209c3.95,-4.2 9.325,-6.3 16.118,-6.3c6.775,0 12.125,2.1 16.057,6.3c3.928,4.2 5.893,9.937 5.893,17.209c0,7.528 -1.94,13.419 -5.815,17.685c-3.878,4.262 -9.257,6.393 -16.135,6.393c-6.9,0 -12.3,-2.128 -16.197,-6.378c-3.896,-4.253 -5.846,-10.15 -5.846,-17.7" style="fill:#231f20;fill-rule:nonzero;"/><path d="M604.965,1003.28l0,-46.119l14.225,0l17.35,37.081l0,-37.081l8.85,0l0,46.119l-13.66,0l-17.918,-38.178l0,38.178l-8.847,0Z" style="fill:#231f20;fill-rule:nonzero;"/><path d="M663.769,985.804l13.319,0l-6.35,-19.543l-6.969,19.543Zm-15.387,17.479l16.731,-46.119l11.631,0l16.072,46.119l-10.04,0l-3.278,-9.913l-18.232,0l-3.594,9.913l-9.29,0Z" style="fill:#231f20;fill-rule:nonzero;"/><path d="M695.965,1003.28l0,-46.119l9.822,0l0,38.303l20.787,0l0,7.816l-30.609,0Z" style="fill:#231f20;fill-rule:nonzero;"/><path d="M756.677,995.652l4.969,0c4.753,0 8.241,-1.231 10.459,-3.69c2.216,-2.459 3.328,-6.325 3.328,-11.6c0,-5.397 -1.112,-9.353 -3.328,-11.863c-2.218,-2.512 -5.706,-3.772 -10.459,-3.772l-4.969,0l0,30.925Zm-9.822,7.629l0,-46.116l14.419,0c3.85,0 6.95,0.3 9.281,0.906c2.332,0.603 4.494,1.582 6.472,2.938c2.838,1.981 4.985,4.603 6.444,7.865c1.459,3.263 2.184,7.069 2.184,11.428c0,7.544 -2.056,13.26 -6.168,17.147c-4.122,3.888 -10.194,5.832 -18.213,5.832l-14.419,0Z" style="fill:#231f20;fill-rule:nonzero;"/><path d="M791.497,1003.28l0,-46.119l30.579,0l0,7.631l-20.575,0l0,10.878l19.293,0l0,7.504l-19.293,0l0,12.415l21.296,0l0,7.691l-31.3,0Z" style="fill:#231f20;fill-rule:nonzero;"/><path d="M855.547,985.804l13.325,0l-6.346,-19.543l-6.979,19.543Zm-15.381,17.479l16.731,-46.119l11.625,0l16.072,46.119l-10.034,0l-3.284,-9.913l-18.225,0l-3.6,9.913l-9.285,0Z" style="fill:#231f20;fill-rule:nonzero;"/><path d="M897.375,977.205l5.816,0c3.643,0 6.146,-0.466 7.503,-1.407c1.353,-0.937 2.031,-2.571 2.031,-4.906c0,-2.481 -0.641,-4.2 -1.922,-5.162c-1.281,-0.96 -3.822,-1.438 -7.612,-1.438l-5.816,0l0,12.913Zm-9.694,26.078l0,-46.119l19.166,0c5.359,0 9.297,0.938 11.825,2.813c2.519,1.878 3.775,4.806 3.775,8.787c0,3.275 -0.706,5.803 -2.122,7.597c-1.416,1.794 -3.688,3.066 -6.819,3.816c2.528,0.271 4.366,1.037 5.525,2.3c1.153,1.259 1.922,3.387 2.294,6.39l0.812,6.66c0.25,1.856 0.563,3.409 0.941,4.662c0.372,1.25 0.853,2.281 1.441,3.094l-10.694,0c-0.338,-0.647 -0.606,-1.388 -0.8,-2.219c-0.203,-0.837 -0.359,-1.972 -0.481,-3.409l-0.66,-6.975c-0.253,-2.813 -0.697,-4.513 -1.331,-5.094c-0.634,-0.584 -2.191,-0.878 -4.675,-0.878l-8.503,0l0,18.575l-9.694,0Z" style="fill:#231f20;fill-rule:nonzero;"/><path d="M937.988,977.205l5.809,0c3.65,0 6.154,-0.466 7.51,-1.407c1.353,-0.937 2.031,-2.571 2.031,-4.906c0,-2.481 -0.641,-4.2 -1.922,-5.162c-1.281,-0.96 -3.822,-1.438 -7.619,-1.438l-5.809,0l0,12.913Zm-9.694,26.078l0,-46.119l19.166,0c5.353,0 9.297,0.938 11.816,2.813c2.521,1.878 3.784,4.806 3.784,8.787c0,3.275 -0.706,5.803 -2.122,7.597c-1.422,1.794 -3.694,3.066 -6.819,3.816c2.522,0.271 4.366,1.037 5.519,2.3c1.159,1.259 1.922,3.387 2.3,6.39l0.813,6.66c0.25,1.856 0.559,3.409 0.934,4.662c0.378,1.25 0.853,2.281 1.441,3.094l-10.694,0c-0.338,-0.647 -0.6,-1.388 -0.8,-2.219c-0.197,-0.837 -0.353,-1.972 -0.481,-3.409l-0.654,-6.975c-0.253,-2.813 -0.696,-4.513 -1.331,-5.094c-0.634,-0.584 -2.197,-0.878 -4.675,-0.878l-8.503,0l0,18.575l-9.694,0Z" style="fill:#231f20;fill-rule:nonzero;"/><path d="M977.746,980.052c0,5.606 0.988,9.862 2.972,12.772c1.978,2.909 4.878,4.359 8.691,4.359c3.834,0 6.747,-1.45 8.722,-4.359c1.984,-2.91 2.975,-7.166 2.975,-12.772c0,-5.506 -1.004,-9.7 -3.004,-12.585c-2.003,-2.887 -4.896,-4.331 -8.693,-4.331c-3.772,0 -6.657,1.45 -8.66,4.344c-2.003,2.897 -3.003,7.087 -3.003,12.572m-10.315,-0.066c0,-7.272 1.971,-13.009 5.928,-17.209c3.947,-4.2 9.318,-6.3 16.112,-6.3c6.775,0 12.128,2.1 16.06,6.3c3.922,4.2 5.887,9.937 5.887,17.209c0,7.528 -1.934,13.419 -5.809,17.685c-3.882,4.262 -9.26,6.393 -16.138,6.393c-6.897,0 -12.3,-2.128 -16.194,-6.378c-3.9,-4.253 -5.846,-10.15 -5.846,-17.7" style="fill:#231f20;fill-rule:nonzero;"/><path d="M1055.29,989.463c-0.337,4.75 -2.106,8.375 -5.315,10.866c-3.213,2.488 -7.716,3.734 -13.507,3.734c-6.881,0 -12.093,-2.003 -15.631,-6.003c-3.547,-4 -5.319,-9.881 -5.319,-17.634c0,-7.731 1.825,-13.669 5.469,-17.806c3.65,-4.138 8.869,-6.207 15.669,-6.207c5.541,0 9.937,1.244 13.178,3.735c3.241,2.494 4.975,5.94 5.206,10.337l-9.1,0c-0.103,-2.209 -0.959,-3.978 -2.565,-5.303c-1.603,-1.322 -3.716,-1.984 -6.347,-1.984c-3.831,0 -6.725,1.434 -8.672,4.3c-1.953,2.865 -2.925,7.112 -2.925,12.74c0,5.794 0.959,10.094 2.875,12.897c1.916,2.803 4.847,4.203 8.784,4.203c2.544,0 4.625,-0.715 6.238,-2.156c1.615,-1.437 2.509,-3.344 2.672,-5.719l9.29,0Z" style="fill:#231f20;fill-rule:nonzero;"/><path d="M1060.31,1003.28l0,-46.119l30.578,0l0,7.631l-20.569,0l0,10.878l19.294,0l0,7.504l-19.294,0l0,12.415l21.291,0l0,7.691l-31.3,0Z" style="fill:#231f20;fill-rule:nonzero;"/><path d="M1106.77,977.205l5.815,0c3.644,0 6.147,-0.466 7.503,-1.407c1.354,-0.937 2.032,-2.571 2.032,-4.906c0,-2.481 -0.641,-4.2 -1.922,-5.162c-1.281,-0.96 -3.822,-1.438 -7.613,-1.438l-5.815,0l0,12.913Zm-9.694,26.078l0,-46.119l19.166,0c5.359,0 9.297,0.938 11.822,2.813c2.521,1.878 3.778,4.806 3.778,8.787c0,3.275 -0.707,5.803 -2.122,7.597c-1.416,1.794 -3.688,3.066 -6.819,3.816c2.528,0.271 4.366,1.037 5.525,2.3c1.153,1.259 1.922,3.387 2.294,6.39l0.812,6.66c0.25,1.856 0.56,3.409 0.941,4.662c0.372,1.25 0.853,2.281 1.437,3.094l-10.69,0c-0.338,-0.647 -0.606,-1.388 -0.8,-2.219c-0.203,-0.837 -0.36,-1.972 -0.485,-3.409l-0.656,-6.975c-0.253,-2.813 -0.697,-4.513 -1.331,-5.094c-0.635,-0.584 -2.191,-0.878 -4.675,-0.878l-8.503,0l0,18.575l-9.694,0Z" style="fill:#231f20;fill-rule:nonzero;"/><path d="M1146.53,980.052c0,5.606 0.987,9.862 2.965,12.772c1.985,2.909 4.885,4.359 8.697,4.359c3.835,0 6.741,-1.45 8.722,-4.359c1.978,-2.91 2.969,-7.166 2.969,-12.772c0,-5.506 -1.003,-9.7 -2.997,-12.585c-2.003,-2.887 -4.903,-4.331 -8.694,-4.331c-3.778,0 -6.662,1.45 -8.659,4.344c-2.003,2.897 -3.003,7.087 -3.003,12.572m-10.322,-0.066c0,-7.272 1.978,-13.009 5.928,-17.209c3.947,-4.2 9.319,-6.3 16.119,-6.3c6.775,0 12.128,2.1 16.053,6.3c3.931,4.2 5.894,9.937 5.894,17.209c0,7.528 -1.941,13.419 -5.816,17.685c-3.875,4.262 -9.253,6.393 -16.131,6.393c-6.903,0 -12.3,-2.128 -16.2,-6.378c-3.894,-4.253 -5.847,-10.15 -5.847,-17.7" style="fill:#231f20;fill-rule:nonzero;"/><path d="M1184.23,988.304l9.663,0c0,3.068 0.756,5.368 2.262,6.912c1.516,1.541 3.791,2.313 6.838,2.313c2.434,0 4.425,-0.597 5.956,-1.797c1.531,-1.2 2.297,-2.716 2.297,-4.55c0,-2.897 -3.616,-5.575 -10.853,-8.035c-0.475,-0.168 -0.819,-0.281 -1.031,-0.346c-0.225,-0.082 -0.538,-0.185 -0.935,-0.31c-4.047,-1.334 -6.965,-2.669 -8.759,-4.006c-1.288,-0.956 -2.281,-2.181 -2.984,-3.669c-0.697,-1.494 -1.044,-3.144 -1.044,-4.956c0,-4.147 1.569,-7.438 4.706,-9.866c3.131,-2.428 7.409,-3.643 12.828,-3.643c5.069,0 8.991,1.178 11.775,3.531c2.785,2.356 4.175,5.662 4.175,9.912l0,0.25l-8.569,0c-0.209,-2.393 -0.996,-4.218 -2.356,-5.472c-1.369,-1.25 -3.247,-1.875 -5.647,-1.875c-2.312,0 -4.156,0.535 -5.515,1.594c-1.369,1.063 -2.053,2.491 -2.053,4.288c0,2.79 3.796,5.418 11.384,7.875c0.269,0.084 0.469,0.147 0.591,0.19c5.8,1.916 9.609,3.835 11.434,5.75c1.819,1.922 2.734,4.566 2.734,7.941c0,4.297 -1.643,7.659 -4.928,10.087c-3.281,2.425 -7.853,3.641 -13.706,3.641c-6.091,0 -10.65,-1.259 -13.697,-3.784c-3.047,-2.522 -4.566,-6.307 -4.566,-11.35l0,-0.625Z" style="fill:#231f20;fill-rule:nonzero;"/></g></svg>