<?xml version="1.0" encoding="UTF-8" standalone="no"?><!DOCTYPE svg PUBLIC "-//W3C//DTD SVG 1.1//EN" "http://www.w3.org/Graphics/SVG/1.1/DTD/svg11.dtd"><svg width="100%" height="100%" viewBox="0 0 117 108" version="1.1" xmlns="http://www.w3.org/2000/svg" xmlns:xlink="http://www.w3.org/1999/xlink" xml:space="preserve" style="fill-rule:evenodd;clip-rule:evenodd;stroke-linejoin:round;stroke-miterlimit:1.41421;"><path d="M12.055,107.056l-0.141,-20.317l5.321,0.009l0.17,20.299l-5.35,0.009Z" style="fill:#24a774;fill-rule:nonzero;"/><path d="M25.843,90.158l0.112,13.449l3.43,-0.009c1.45,0.004 2.503,-0.073 3.179,-0.304c0.647,-0.203 1.199,-0.497 1.611,-0.904c0.426,-0.424 0.764,-1.067 1.019,-1.956c0.288,-0.893 0.409,-2.047 0.406,-3.52c-0.013,-1.5 -0.172,-2.682 -0.464,-3.559c-0.284,-0.854 -0.724,-1.557 -1.334,-2.046c-0.596,-0.491 -1.318,-0.83 -2.185,-0.98c-0.626,-0.116 -1.874,-0.171 -3.697,-0.18l-2.077,0.009Zm-4.591,-3.429l8.34,-0.009c2.12,-0.01 3.701,0.165 4.774,0.516c1.081,0.337 2.094,0.937 2.987,1.745c0.921,0.818 1.643,1.885 2.167,3.191c0.538,1.318 0.796,2.953 0.817,4.898c0.009,1.763 -0.253,3.307 -0.801,4.576c-0.522,1.304 -1.201,2.346 -2.019,3.107c-0.826,0.749 -1.815,1.327 -3.004,1.709c-1.154,0.374 -2.643,0.577 -4.502,0.564l-8.604,0.011l-0.155,-20.308Z" style="fill:#24a774;fill-rule:nonzero;"/><path d="M44.239,107.03l-0.132,-20.331l14.49,-0.021l0.042,3.445l-10.578,-0.003l0.024,4.517l9.839,-0.018l0.038,3.427l-9.865,0.011l0.053,5.533l10.94,0.001l0.033,3.412l-14.884,0.027Z" style="fill:#24a774;fill-rule:nonzero;"/><path d="M74.572,98.943l-3.075,-7.529l-2.916,7.55l5.991,-0.021Zm8.215,8.023l-4.817,0.007l-1.945,-4.612l-8.765,0.02l-1.766,4.617l-4.716,0.006l8.387,-20.351l4.694,-0.005l8.928,20.318Z" style="fill:#24a774;fill-rule:nonzero;"/><path d="M84.989,106.973l-0.172,-20.328l7.259,-0.007l4.461,13.858l4.228,-13.88l7.248,-0.003l0.161,20.34l-4.485,0.001l-0.131,-16.004l-4.653,16.004l-4.674,-0.005l-4.836,-15.969l0.106,15.987l-4.512,0.006Z" style="fill:#24a774;fill-rule:nonzero;"/><clipPath id="_clip1"><path d="M67.345,0.199l-8.936,7.143l0.204,0.193c-0.822,-0.002 -4.353,2.977 -4.338,3.768l-0.851,-0.006l0.01,0.804c-1.694,0.39 -2.911,2.951 -4.587,2.988c-0.403,1.373 -1.456,0.959 -2.285,2.168c-0.836,0.395 -2.715,1.776 -3.541,2.576c-1.031,0.783 -3.545,1.18 -3.735,2.581c-1.262,-0.001 -5.013,2.952 -4.98,3.949c-1.271,0.215 -5.838,4.191 -7.276,5.187c-1.484,0.954 -2.078,1.563 -3.54,2.743c-0.827,0.795 -3.144,1.796 -3.324,2.989c-2.095,0.392 -1.026,1.201 -2.488,2.175c-1.254,0.796 -1.691,1.189 -2.707,1.992c-0.855,0.794 -1.695,1.188 -2.505,2.176c-0.816,0.8 -2.279,1.587 -2.69,1.98c-1.64,1.988 -3.339,2.781 -4.983,4.377c-1.668,1.569 -3.144,2.377 -4.783,4.348l-0.01,0.786c1.908,1.203 4.229,4.758 7.164,4.754l0.195,-0.011c1.052,0.008 2.273,-2.17 3.54,-2.779c0.843,-0.383 2.287,-3.153 2.267,-3.957l0.435,0.993c0.827,0.006 1.461,-0.196 1.45,-0.999l-0.019,-0.584l0.632,-0.009c1.664,0.01 1.887,-1.965 2.929,-2.567c1.231,-0.802 2.497,-1.396 2.469,-3.169c0.829,-0.205 0.824,-0.799 1.264,-0.787c0.629,-0.019 0.629,-0.019 1.036,0.185l0.641,-0.788c-0.049,-2.189 -0.239,-1.582 1.228,-1.19l0.198,-1.789c1.044,-0.189 3.113,-1.587 3.116,-2.573l0.844,-0.204l-0.005,-1.176l0.612,-0.013c0.828,-0.011 0,-0.389 1.272,-0.39l0.175,-0.79l0.433,-0.999l-0.006,0.793l1.462,-1.181l-0.21,-0.21c1.233,-0.196 8.916,-9.297 11,-9.511l-0.012,-0.596l0.858,-0.595l1.659,-0.591l0.609,0.374l1.674,-2.157l1.244,-1.193l-0.426,-1.189l1.873,0.582c-0.005,-1.17 0.199,-1.775 1.462,-1.764c0.2,-0.398 0.2,-0.398 0.207,-1.003l0.011,-0.592l0.81,-0.212l0.837,-0.385l-0.013,-1.199l0.421,0.006c0.007,1.584 1.261,1.967 1.257,1.013l-0.003,-1.209c-1.041,-0.402 1.027,-1.178 1.442,-1.569l0.005,0.771l0.014,0.592c1.656,-0.2 2.273,-1.977 2.907,-2.965l-0.837,-0.201l-0.015,-0.576l0.629,-0.013c0.637,0.003 0.637,0.003 1.056,0.181l0.004,-0.784c-0.027,-0.782 0.609,-0.592 1.215,-0.773c0.451,-0.228 0.636,-0.808 1.054,-1.2c0.844,-1.388 1.88,-1.41 1.88,-2.374l0.594,0.001l0.243,0.586l3.955,0.006l1.685,0.958c0.021,1.005 1.684,1.995 2.544,2.183c-0.008,0.797 11.791,12.68 13.06,13.439c0.206,0.431 5.056,5.165 5.89,5.743c0.851,1.001 5.256,5.151 5.693,5.932c-1.48,-0.18 -5.245,-2.161 -6.71,-2.156c-0.403,-0.006 -0.206,0.002 -0.855,0.191l-1.877,-1.383l-0.191,0.195l-0.004,0.394c-1.035,0.013 -1.67,-0.589 -2.335,-0.788c-0.53,-0.084 -0.91,-0.058 -1.285,-0.033c-0.501,0.033 -0.994,0.067 -1.827,-0.157c-1.487,-0.792 -2.938,-1.389 -4.405,-1.974c-2.293,-0.781 -7.95,-1.573 -10.892,-1.563l-5.628,-0.001l-5.256,0.802l0.031,0.392l-1.276,-0.203l-3.334,1.396l-1.039,0.396l0.005,0.195l-1.027,-0.203l-0.224,0.401l-0.626,0.207l-0.003,0.193l-0.827,-0.194l0.012,0.389l-0.847,0.01c-0.318,-0.003 -0.421,0.098 -0.524,0.198c-0.103,0.1 -0.206,0.2 -0.524,0.198l-1.454,0.006l-1.462,1.371l0.211,0.214l-0.636,0.002c-0.627,0 -1.448,0.994 -1.646,1.593c-0.834,0.984 -1.457,0.382 -1.682,1.775l-1.242,-0.004l0.23,0.996l-0.432,-0.2l0.202,0.188l-2.286,2.194l1.051,-0.011l-0.62,1.4l0.648,-0.011l-0.621,0.615l0.608,0.178c-0.407,0.211 -0.617,0.003 -0.614,0.595l0.009,0.79c0.006,0.594 -0.011,0.396 0.433,0.602l-0.436,0.583l0.22,2.189c-0.613,-0.209 -1.029,-0.397 -1.038,0.406l0.017,0.783c0.012,1.187 1.037,-0.195 1.282,1.579l-0.859,-0.003l0.012,0.408l-0.214,0.979l-0.622,-0.007l0.02,0.396l1.655,-0.379l-0.182,1.391l-0.222,-0.813l-1.037,0.999l1.244,1.195l0.642,-0.214l0.643,1.393l0.014,1.389l0.615,0.386l-0.204,0.212l0.009,1.18l-1.039,0.403l0.85,0.387l-0.014,0.782l-0.828,-0.181c0,0 2.118,2.382 2.316,2.562l0.002,0.999l-0.409,-0.78l-0.842,0.779c0.009,-0.794 0.232,-0.393 0.203,-1.187c-0.002,-0.6 -0.432,-0.204 -0.642,-0.201l0.004,-0.769c-1.236,0.176 -0.62,0.18 -1.047,0.981c-0.006,-1.196 -0.219,-1.208 1.059,-1.196l0.003,-0.403l-1.069,0.013l0.205,-0.809l-1.239,-0.397c-0.013,1.001 -0.01,1.2 -1.062,1.198l-0.003,-1.391l-0.847,0.21c0.224,-0.4 0.224,-0.4 0.208,-1.013c0.004,-0.777 -0.212,-0.379 -0.212,-1.178l0.619,-0.191l0.021,1.193l1.255,-0.199l-0.006,-0.399l-0.425,0l-0.439,-2.981l-0.828,0.01l-0.017,-0.799l0.842,-0.173l-0.223,-0.807l-0.415,0l0.01,0.592l-0.628,0.017c0.008,0.575 0.22,0.775 0.231,1.359l0.007,1.401l0.42,0.003l-0.84,0.594l-0.247,-3.765l-0.622,-0.206c-0.02,-0.79 0.216,-0.388 0.174,-1.198c0.016,-0.78 -0.192,-0.972 -0.582,-1.164l1.212,-0.807c-0.208,-0.59 -0.433,-0.792 -1.256,-0.582l-0.003,-0.805l0.205,0.405l0.631,-0.007l0.618,-1.572l-0.418,-0.207l-0.407,0.199l-0.214,-0.191l-1.666,0.387l0.401,-0.994l-0.634,-0.177l0.842,-0.824c-0.213,-0.178 -0.225,-0.383 -0.85,-0.36c-0.212,-0.013 -0.821,0.786 -1.043,0.993l0.243,1.364l-1.26,0.204l1.056,1.189l-1.058,-0.193l0.229,2.761l-0.186,2.987l0.634,-0.013l-0.209,0.4l0.22,0.196c0.003,1.179 0.003,1.975 1.045,1.985l-0.416,0.985l1.056,-0.006l-0.412,0.603l-0.216,0.781l0.853,-0.007l-0.004,0.612l-0.221,-0.001l-0.188,0.589l1.446,-0.796l0.016,0.195l-0.827,0.6l-0.005,0.4l0.411,-0.006c-0.399,1.592 0.411,0.195 1.687,1.974l-0.619,0.404l1.265,0.213l-0.213,0.761l1.041,0.818l0.63,-0.406l0.424,0.589l-0.636,0.009l0.862,1.776l0.213,-0.195l-0.237,-0.798l0.652,0.783l-0.217,0.005l0.643,-0.001l-0.004,1.592l0.833,-0.207l1.494,1.985l1.035,-0.008c0.641,2.189 3.14,1.584 3.573,2.969l0.845,-0.395l-0.632,0.967c1.07,0.035 1.48,0.406 1.909,0.417c0.407,-0.002 0.204,0 0.807,-0.203l0.652,0.397l0.613,-0.196l1.042,0.385l0.445,1.193l1.679,0.011c0.607,-0.012 0.595,0.183 0.808,0.578l1.272,0.008l0.212,-0.616l1.463,0.008c0.623,0.016 0.193,0.412 1.245,0.604l1.044,-0.796l0.01,-0.203l0.627,0.989l0.434,0.006l-0.018,-0.399l0.422,0.001l-0.008,0.402c0.846,-0.012 0.426,-0.2 1.276,-0.216c0,0 0.392,0.206 0.62,0.194l-0.004,-0.594l1.03,0.612l-0.012,-0.802l0.639,-0.185l1.251,0.772l0.004,-0.792l-0.413,0.008l0.003,-1.191l0.828,0.011l-0.004,-0.606l1.044,-0.202l0.835,0.404l-0.007,-0.608l0.639,0.2c0.611,-0.387 2.081,-0.973 2.061,-1.984c2.749,-0.005 2.488,-2.561 3.956,-2.769l2.081,-2.769c0.097,0 0.149,0.046 0.224,0.093c0.078,0.049 0.181,0.099 0.387,0.092c0.427,0.014 1.064,-0.577 1.039,-0.791l1.042,0.217l0.226,0.78c-1.242,0.404 -0.824,1.168 -1.657,1.173l-0.643,0.009l0.023,0.398l0.428,0.004l-0.851,0.978l0.216,0.994l-0.193,0.022l-0.005,-0.611c-1.461,0.399 -0.813,1.585 -2.716,1.597c0.026,1.181 -0.218,1.038 -0.599,0.896c-0.13,-0.049 -0.276,-0.098 -0.433,-0.094c-0.63,-0.022 -0.217,0.571 -0.199,0.961l-0.629,0.015c-0.644,0.014 -0.85,0.198 -1.469,0.203l0.006,0.595l-0.211,-0.011l0.223,0.801l-1.065,-0.404l0.22,1.204c-1.036,0.013 -2.281,0.784 -3.128,0.788l-0.617,-0.016c-0.169,0.849 -0.925,0.829 -1.686,0.809c-0.138,-0.003 -0.276,-0.007 -0.41,-0.006l-1.655,1.002l0.005,1.781l2.304,-1.004l-0.203,1.191l0.211,0.209l1.025,-1.008l0.638,0.409l-0.618,-0.004l-0.01,0.411l0.231,0.184l2.059,-1.596l-0.608,1.013l3.322,-1.607l0.006,-0.598l0.635,0.408l-0.245,-0.79c1.684,-0.414 4.183,-1.794 4.179,-3.567c2.077,-0.412 0.624,-2.187 2.917,-2.182l-0.033,-1.198c0.004,-0.591 0.217,-0.58 0.849,-0.589l-0.009,-0.991l-1.056,0.01l1.261,-0.404l-0.198,-0.197l1.237,-0.992l-0.224,-0.787l1.031,-0.614l0.638,-0.191l0.007,-0.399l-0.829,0.007c0.827,-1.192 1.225,-2.568 2.671,-3.377l-0.006,-1.399c0,-0.598 -0.204,-0.958 -0.424,-1.161l-0.266,-5.148l-1.044,-0.393l0.837,-2.385l0.207,-1.18l1.016,-0.599l-0.821,-0.193l0.828,-0.207l1.073,2.383l-1.461,0.193l1.05,2.762l0.222,0.001l0.612,-0.195l-0.398,-0.982l1.005,-0.403l1.3,3.757l0.238,1.799l0.414,-0.008c-0.023,-2.37 1.457,-2.171 1.433,-2.999c-0.014,-0.383 -0.215,-0.569 -0.437,-0.775l0.432,-1.194l-0.432,0l-0.003,0.414l-1.045,-1l0.619,-0.193l0.631,0.397l-0.004,-0.593l-0.424,-0.02l0.212,-0.772l-1.24,0.389l0.205,-1.179l0.836,-0.008l-0.016,-0.391l-0.843,-0.212c-0.023,-3.166 -8.46,-12.654 -11.394,-12.647l-1.681,-0.601l0.021,0.211c-1.078,-1.389 -2.726,-1.588 -5.245,-1.375c-0.923,0.006 -2.115,0.004 -3.204,0.002c-0.871,-0.002 -1.676,-0.005 -2.225,-0.002l-1.689,-0.016l0.017,0.394l-1.258,0.02l-1.265,0.202l0.429,0.806l-0.638,-0.026c0,0 -2.691,0.808 -2.901,0.813c-1.052,0.793 -1.651,0.783 -1.646,1.78c-1.261,-0.004 -1.466,0.991 -2.298,1.784c-1.252,0.979 -0.837,1.77 -1.675,2.373c-1.025,0.788 -1.447,0.782 -1.648,2.377c-0.197,0.999 -0.378,2.576 -1.421,2.576c-0.244,-0.795 -0.02,-0.783 -1.071,-0.793l0.63,0.802l0.003,1.183l-1.021,-0.394l-0.226,0.201l1.27,0.98l0.215,-0.197l-0.002,0.406l-1.066,-0.022l0.018,-0.371l-0.428,-0.005l0.017,0.987c0.01,0.589 -0.003,0.384 0.409,0.606l0.021,-0.604l0.826,0.593l-0.636,0.006c0.411,1.388 -1.229,1.584 -1.228,2.362l0.002,0.614l0.624,-0.017l0.004,0.591l0.206,-0.181l0.847,0.784l-0.206,0.793l-1.87,0.191l-0.023,-1.182c0.007,-0.595 -0.195,-0.786 -0.425,-1.175c0.1,-0.284 0.156,-0.26 0.186,-0.236c0.033,0.027 0.034,0.053 0.029,-0.371l-0.006,-1.184c-0.013,-0.212 -0.214,-0.39 -0.42,-0.589l0.402,-1.594l0.191,-3.17l0.597,-1.588c0.627,0.22 0.645,0.403 0.846,0.397c0.622,-0.007 0.622,-0.007 1.039,-0.194c-0.003,-0.789 0.002,-0.987 0.843,-1.008c-0.22,-0.572 -0.232,-0.383 -0.211,-0.749c-0.006,-0.222 0.584,-1.614 1.655,-1.619c1.008,-3.557 1.642,-2.168 3.093,-3.762c0.845,-0.793 0.432,-0.789 1.876,-1.581c0.851,-0.594 1.453,-0.983 2.719,-0.994c1.461,-0.789 2.3,-0.993 3.533,-1.792l6.464,0.006l0.223,-0.003c2.511,-0.02 3.14,-0.413 5.227,0.385c0.654,0.195 5.05,1.971 5.05,1.971c0.395,0 0.406,-0.201 0.826,-0.395l0.03,0.587c0.805,0 1.033,0.013 1.026,0.802l0.843,0.009l-0.015,0.581l0.21,0.19l0.628,-1.189l-0.203,-0.198l2.929,1.177l0.212,-0.387c1.053,0.406 1.682,0.204 2.093,1.399l1.692,-0.017c0.419,-0.004 0.412,-0.202 0.835,-0.395c0.628,0.594 10.687,5.34 11.312,5.326c0.626,0.011 0.626,0.011 1.065,-0.2l-0.035,-0.984c1.495,0.195 3.145,1.201 3.149,2.588l7.784,3.556c0.013,0.579 0.212,0.959 0.829,0.975l1.053,-0.006c0.41,0.009 1.678,-0.6 1.677,-1.185l-0.032,-2.381c-0.016,-0.795 -1.061,-0.997 -1.463,-1.587c-0.624,-0.593 -0.863,-1.195 -1.882,-1.18l-0.032,-0.783l-0.612,-0.009c-0.213,-1.968 -4.847,-4.543 -5.051,-5.732l-0.851,-0.008c-0.638,0.005 -0.633,-0.386 -0.62,-0.985l-0.851,-0.006l-0.008,-0.769c-0.009,-0.797 -1.081,-1.394 -1.669,-1.785c-2.113,-0.602 -0.654,-1.001 -2.323,-1.385c-0.225,-1.81 -2.74,-3.567 -4.005,-4.549c-1.069,-0.979 -3.384,-3.766 -4.226,-4.362c-0.832,-1.194 -2.539,-2.774 -3.786,-4.145c-0.86,-1.404 -3.372,-2.77 -3.381,-4.566c-0.841,0.02 -0.841,-0.178 -0.847,-0.983l-1.041,-0.383l0.004,-0.798l-2.123,-1.193l-0.216,0.199l0.006,-0.791c-0.006,-0.604 -2.108,-2.378 -2.532,-2.956c-0.632,-0.596 -0.841,-0.204 -1.475,-1.184c-0.634,-0.597 -0.835,-0.813 -1.476,-1.402c-0.836,-0.973 -2.084,-1.559 -2.736,-2.763c-0.639,-0.792 -2.307,-1.971 -3.158,-2.558l-0.822,-0.002l-2.308,0.199Zm0.375,48.117c5.211,-0.005 4.833,3.947 6.306,4.339c0.007,0.59 -0.227,0.787 -0.198,1.382l-0.011,0.214l0.246,4.158c-0.628,0.394 -3.116,2.968 -3.121,3.554c0.011,0.405 0.02,0.21 0.222,0.794c-0.824,0.197 -2.481,3.971 -5.411,3.975l0.007,0.57l-2.927,0.034l0.002,-0.407l-2.722,0.201c-0.194,0.196 -0.414,0.412 -0.619,0.4c-2.919,0.016 -1.705,-2.168 -4.809,-2.18c-1.081,-0.786 -4.027,-4.157 -5.286,-4.139l-0.614,-0.005l0.419,1.003l-0.434,-0.008l0.022,0.385l-2.519,-1.576l-0.2,0.201l-0.01,-0.592l1.467,0.782l-0.028,-1.384c-0.638,-0.207 -1.063,-1.977 -1.049,-2.778l1.267,0.009l-0.014,0.604l-0.397,-0.021l-0.015,0.4l1.252,0.193l-0.637,-0.785l1.046,0.388l0.816,-1.185l0.011,-0.998l-0.629,0.014l0.843,-0.809c0.193,0.412 0.193,0.412 0.208,1.007l0.005,0.388c-0.015,0.595 -0.016,0.404 -0.209,0.792l0.437,1.392l2.934,1.374l0.009,0.598c0.009,0.4 0.203,0.604 0.633,0.602l0.848,0.007l0.007,0.772l5.223,1.585l-0.016,-0.2l-0.411,-0.986l-2.106,-0.397l0.411,-0.993c-1.032,-0.184 -1.453,-0.784 -1.481,-1.964c0.006,-0.209 0.232,-0.403 0.423,-0.401c0.417,0 2.308,1.574 3.792,1.977c2.515,0.975 2.077,0.382 4.801,0.381l0.629,-0.396c3.549,-0.004 4.983,-3.96 2.878,-5.363l-0.41,0.215l-0.419,0.587l-0.003,-2.169l-0.86,0.195l0.011,-0.2l-1.879,-0.785l-1.049,0.602c0.201,0.382 0.201,0.382 0.23,0.987l-0.006,0.993c-0.644,0.192 -0.62,0.384 -1.463,0.391l-1.244,0.014c-0.643,-0.033 -0.872,-1.215 -0.84,-1.81c-0.034,-2.774 1.813,-5.936 4.736,-5.924l1.905,-0.004Z"/></clipPath><g clip-path="url(#_clip1)"><path d="M119.385,2.627l-4.286,79.85l-116.264,-6.24l4.286,-79.851l116.264,6.241Z" style="fill:url(#_Linear2);fill-rule:nonzero;"/></g><defs><linearGradient id="_Linear2" x1="0" y1="0" x2="1" y2="0" gradientUnits="userSpaceOnUse" gradientTransform="matrix(-3.0898,57.5648,-57.5648,-3.0898,60.6396,10.6444)"><stop offset="0" style="stop-color:#0763aa;stop-opacity:1"/><stop offset="1" style="stop-color:#24a774;stop-opacity:1"/></linearGradient></defs></svg>